<?xml version="1.0" encoding="UTF-8" standalone="no"?>
<!DOCTYPE svg PUBLIC "-//W3C//DTD SVG 1.1//EN" "http://www.w3.org/Graphics/SVG/1.1/DTD/svg11.dtd">
<svg xmlns="http://www.w3.org/2000/svg" version="1.1" viewBox="0.00 0.00 1614.00 1948.00">
<g stroke-width="2.00" fill="none" stroke-linecap="butt">
<path stroke="#80786f" d="
  M 1414.91 45.03
  Q 1415.27 44.09 1414.93 44.09
  Q 1263.49 43.82 1112.86 43.92"
/>
<path stroke="#6e604e" d="
  M 1112.86 43.92
  L 1075.35 43.92
  A 0.39 0.39 0.0 0 0 1074.96 44.31
  L 1074.96 81.34
  A 0.26 0.26 0.0 0 1 1074.70 81.60
  L 546.79 81.60
  A 0.25 0.24 -0.0 0 1 546.54 81.36
  L 546.54 44.30
  A 0.38 0.38 0.0 0 0 546.16 43.92
  L 508.64 43.90"
/>
<path stroke="#80786f" d="
  M 508.64 43.90
  L 206.56 43.90"
/>
<path stroke="#6e604e" d="
  M 206.56 43.90
  L 169.41 43.95
  A 0.58 0.58 0.0 0 0 168.83 44.53
  L 168.84 81.17
  A 0.43 0.43 0.0 0 1 168.41 81.60
  L 55.79 81.60
  A 0.28 0.27 -0.0 0 0 55.51 81.87
  L 55.51 1591.77
  A 0.66 0.66 0.0 0 0 56.17 1592.43
  L 92.88 1592.43
  A 0.55 0.55 0.0 0 1 93.43 1592.98
  L 93.43 1629.77
  A 0.39 0.39 0.0 0 0 93.82 1630.16
  L 130.63 1630.16
  A 0.51 0.51 0.0 0 1 131.14 1630.67
  L 131.14 1894.13
  A 0.42 0.42 0.0 0 0 131.56 1894.55
  L 1489.99 1894.55
  A 0.36 0.36 0.0 0 0 1490.35 1894.19
  L 1490.35 1630.65
  A 0.51 0.51 0.0 0 1 1490.86 1630.14
  L 1527.55 1630.14
  A 0.49 0.49 0.0 0 0 1528.04 1629.65
  L 1528.04 1592.72
  A 0.29 0.29 0.0 0 1 1528.33 1592.43
  L 1565.63 1592.43
  A 0.35 0.34 -90.0 0 0 1565.97 1592.08
  L 1565.97 81.84
  A 0.24 0.24 0.0 0 0 1565.73 81.60
  L 1415.86 81.60
  A 0.77 0.76 89.6 0 1 1415.10 80.84
  L 1414.91 45.03"
/>
<path stroke="#d8c4aa" d="
  M 206.56 43.90
  L 206.51 119.12
  A 0.45 0.45 0.0 0 1 206.06 119.56
  L 94.10 119.56
  A 0.67 0.67 0.0 0 0 93.43 120.23
  L 93.43 1553.77
  A 0.70 0.70 0.0 0 0 94.13 1554.47
  L 1527.39 1554.47
  A 0.65 0.65 0.0 0 0 1528.04 1553.82
  L 1528.04 120.11
  A 0.54 0.54 0.0 0 0 1527.50 119.57
  L 1415.44 119.57
  A 0.47 0.46 -90.0 0 1 1414.98 119.10
  L 1414.91 45.03"
/>
<path stroke="#d8c4aa" d="
  M 1112.86 43.92
  L 1112.92 119.03
  A 0.53 0.53 0.0 0 1 1112.39 119.56
  L 509.16 119.56
  A 0.59 0.59 0.0 0 1 508.57 118.97
  L 508.64 43.90"
/>
<path stroke="#d8c4aa" d="
  M 1452.67 1592.83
  A 0.41 0.41 0.0 0 0 1452.26 1592.42
  L 169.26 1592.42
  A 0.41 0.41 0.0 0 0 168.85 1592.83
  L 168.85 1856.19
  A 0.41 0.41 0.0 0 0 169.26 1856.60
  L 1452.26 1856.60
  A 0.41 0.41 0.0 0 0 1452.67 1856.19
  L 1452.67 1592.83"
/>
<path stroke="#d8c4aa" d="
  M 810.74 232.65
  Q 246.62 232.64 244.84 232.67
  A 0.38 0.37 89.4 0 0 244.47 233.05
  L 244.47 307.87
  A 0.46 0.45 0.0 0 1 244.01 308.32
  L 169.31 308.32
  A 0.44 0.43 -0.0 0 0 168.87 308.75
  Q 168.83 313.60 168.82 723.66
  Q 168.82 1133.71 168.86 1138.56
  A 0.44 0.43 0.0 0 0 169.30 1138.99
  L 244.00 1138.99
  A 0.46 0.45 0.0 0 1 244.46 1139.44
  L 244.46 1214.26
  A 0.38 0.37 -89.4 0 0 244.82 1214.64
  Q 246.61 1214.67 810.73 1214.68
  Q 1374.85 1214.69 1376.64 1214.66
  A 0.38 0.37 89.4 0 0 1377.00 1214.28
  L 1377.00 1139.46
  A 0.46 0.45 -0.0 0 1 1377.46 1139.01
  L 1452.16 1139.01
  A 0.44 0.43 -0.0 0 0 1452.60 1138.57
  Q 1452.64 1133.73 1452.65 723.67
  Q 1452.66 313.62 1452.62 308.77
  A 0.44 0.43 0.0 0 0 1452.18 308.34
  L 1377.48 308.34
  A 0.46 0.45 0.0 0 1 1377.02 307.89
  L 1377.02 233.07
  A 0.38 0.37 -89.4 0 0 1376.65 232.69
  Q 1374.86 232.66 810.74 232.65"
/>
<path stroke="#80786f" d="
  M 810.88 1422.39
  Q 810.88 1438.38 810.81 1440.91
  A 0.45 0.44 0.9 0 0 811.27 1441.37
  L 1225.33 1441.37
  A 0.61 0.60 -90.0 0 1 1225.93 1441.98
  L 1225.93 1478.55
  A 0.53 0.53 0.0 0 0 1226.46 1479.08
  L 1376.51 1479.08
  A 0.45 0.44 -89.8 0 0 1376.95 1478.64
  Q 1377.01 1450.98 1377.01 1422.39
  Q 1377.01 1393.81 1376.95 1366.15
  A 0.45 0.44 89.8 0 0 1376.51 1365.71
  L 1226.46 1365.71
  A 0.53 0.53 0.0 0 0 1225.93 1366.24
  L 1225.93 1402.81
  A 0.61 0.60 90.0 0 1 1225.33 1403.42
  L 811.27 1403.42
  A 0.45 0.44 -0.9 0 0 810.81 1403.88
  Q 810.88 1406.41 810.88 1422.39"
/>
<path stroke="#6e604e" d="
  M 244.46 346.04
  L 207.05 346.13
  A 0.51 0.51 0.0 0 0 206.54 346.64
  L 206.54 1100.71
  A 0.51 0.51 0.0 0 0 207.05 1101.22
  L 244.46 1101.25"
/>
<path stroke="#6e604e" d="
  M 282.19 1138.93
  L 282.17 1176.45
  A 0.50 0.50 0.0 0 0 282.67 1176.95
  L 1338.75 1176.95
  A 0.51 0.51 0.0 0 0 1339.26 1176.44
  L 1339.28 1138.93"
/>
<path stroke="#6e604e" d="
  M 1377.02 1101.23
  L 1414.43 1101.22
  A 0.52 0.51 -0.0 0 0 1414.95 1100.71
  L 1414.95 346.61
  A 0.51 0.51 0.0 0 0 1414.44 346.10
  L 1377.02 346.04"
/>
<path stroke="#6e604e" d="
  M 1339.27 308.32
  L 1339.26 270.90
  A 0.29 0.29 0.0 0 0 1338.97 270.61
  L 282.76 270.61
  A 0.50 0.50 0.0 0 0 282.26 271.11
  L 282.21 308.33"
/>
<path stroke="#463722" d="
  M 540.59 514.63
  L 540.59 546.41
  A 0.53 0.52 -0.6 0 1 540.07 546.93
  L 508.36 546.93"
/>
<path stroke="#2f2615" d="
  M 508.36 546.93
  L 476.08 546.95
  A 0.37 0.36 0.0 0 0 475.71 547.31
  L 475.71 902.75
  A 0.76 0.76 0.0 0 0 476.48 903.51
  L 508.23 903.19"
/>
<path stroke="#463722" d="
  M 508.23 903.19
  L 572.60 903.54
  A 0.53 0.53 0.0 0 1 573.13 904.07
  L 573.13 967.84
  A 0.49 0.48 90.0 0 0 573.61 968.33
  L 670.18 968.15"
/>
<path stroke="#2f2615" d="
  M 670.18 968.15
  L 800.06 968.11"
/>
<path stroke="#463722" d="
  M 800.06 968.11
  L 1026.26 968.33
  A 0.47 0.47 0.0 0 0 1026.73 967.86
  L 1026.71 903.52"
/>
<path stroke="#2f2615" d="
  M 1026.71 903.52
  L 1123.38 903.54
  A 0.66 0.66 0.0 0 0 1124.04 902.88
  L 1124.02 676.54"
/>
<path stroke="#355637" d="
  M 1124.02 676.54
  Q 1124.00 676.51 1123.97 676.47
  A 0.36 0.32 -63.7 0 1 1123.92 676.29
  L 1123.99 611.71"
/>
<path stroke="#2f2615" d="
  M 1123.99 611.71
  L 1123.97 547.59
  A 0.69 0.69 0.0 0 0 1123.28 546.90
  L 1059.77 546.90
  A 0.54 0.54 0.0 0 1 1059.23 546.36
  L 1059.23 482.71
  A 0.62 0.61 0.0 0 0 1058.61 482.10
  L 541.23 482.10
  A 0.64 0.64 0.0 0 0 540.59 482.74
  L 540.59 514.63"
/>
<path stroke="#445f38" d="
  M 1123.99 611.71
  L 1027.04 611.72
  A 0.22 0.20 20.8 0 0 1026.89 611.78
  Q 1026.78 611.86 1026.68 611.94"
/>
<path stroke="#2f2615" d="
  M 1026.68 611.94
  Q 1026.55 611.81 1026.48 611.63"
/>
<path stroke="#554023" d="
  M 1026.48 611.63
  L 1026.70 515.21
  A 0.59 0.58 -0.0 0 0 1026.11 514.63
  L 929.63 514.63"
/>
<path stroke="#6b5330" d="
  M 929.63 514.63
  L 670.28 514.63"
/>
<path stroke="#554023" d="
  M 670.28 514.63
  L 540.59 514.63"
/>
<path stroke="#463722" d="
  M 1026.48 611.63
  L 929.63 611.72"
/>
<path stroke="#82643d" d="
  M 929.63 514.63
  L 929.63 611.72"
/>
<path stroke="#5c492f" d="
  M 929.63 611.72
  L 929.64 675.46"
/>
<path stroke="#718352" d="
  M 800.02 676.53
  L 800.01 612.19
  A 0.49 0.49 0.0 0 0 799.52 611.70
  L 702.70 612.00"
/>
<path stroke="#5c492f" d="
  M 702.70 612.00
  L 670.26 611.72"
/>
<path stroke="#82643d" d="
  M 670.28 514.63
  L 670.26 611.72"
/>
<path stroke="#463722" d="
  M 670.26 611.72
  L 605.80 611.72
  A 0.43 0.43 0.0 0 0 605.37 612.15
  L 605.37 676.18
  A 0.36 0.36 0.0 0 0 605.73 676.54
  L 702.30 676.54
  A 0.31 0.29 -65.8 0 0 702.51 676.45
  Q 702.64 676.32 702.71 676.25"
/>
<path stroke="#5b7044" d="
  M 702.71 676.25
  L 800.02 676.53"
/>
<path stroke="#82643d" d="
  M 800.02 676.53
  L 928.68 676.59
  A 0.40 0.35 30.1 0 0 928.83 676.56
  Q 929.51 676.24 929.64 675.46"
/>
<path stroke="#463722" d="
  M 929.64 675.46
  L 929.68 676.10
  A 0.47 0.47 0.0 0 0 930.15 676.54
  L 1026.69 676.52"
/>
<path stroke="#5b7044" d="
  M 1026.69 676.52
  Q 1026.70 676.54 1026.71 676.55"
/>
<path stroke="#554023" d="
  M 1026.71 676.55
  L 1026.69 773.46
  A 0.43 0.43 0.0 0 1 1026.26 773.89
  L 897.59 773.89
  A 0.47 0.47 0.0 0 0 897.12 774.36
  L 897.12 870.30
  A 0.67 0.67 0.0 0 0 897.79 870.97
  L 1025.97 870.97
  A 0.75 0.74 -0.0 0 1 1026.72 871.71
  L 1026.71 903.52"
/>
<path stroke="#554023" d="
  M 800.06 968.11
  L 800.04 903.91
  A 0.38 0.38 0.0 0 0 799.66 903.53
  L 670.60 903.53
  A 0.42 0.42 0.0 0 0 670.18 903.95
  L 670.18 968.15"
/>
<path stroke="#554023" d="
  M 508.23 903.19
  L 508.33 871.44
  A 0.49 0.48 -89.4 0 1 508.81 870.96
  L 572.60 870.96
  A 0.53 0.53 0.0 0 0 573.13 870.43
  L 573.13 774.64
  A 0.75 0.74 -90.0 0 0 572.39 773.89
  L 508.56 773.89
  A 0.13 0.13 0.0 0 1 508.43 773.76
  L 508.36 546.93"
/>
<path stroke="#445f38" d="
  M 1124.02 676.54
  L 1026.71 676.55"
/>
<path stroke="#355637" d="
  M 1026.68 611.94
  L 1026.69 676.52"
/>
<path stroke="#355637" d="
  M 702.70 612.00
  L 702.71 676.25"
/>
<path stroke="#80786f" d="
  M 433.18 1668.19
  A 0.34 0.34 0.0 0 0 432.84 1667.85
  L 206.88 1667.85
  A 0.34 0.34 0.0 0 0 206.54 1668.19
  L 206.54 1705.19
  A 0.34 0.34 0.0 0 0 206.88 1705.53
  L 432.84 1705.53
  A 0.34 0.34 0.0 0 0 433.18 1705.19
  L 433.18 1668.19"
/>
<path stroke="#80786f" d="
  M 1339.19 1705.48
  Q 1339.06 1705.61 1338.97 1705.61
  Q 1303.72 1705.58 1301.87 1705.63
  A 0.32 0.32 0.0 0 0 1301.55 1705.95
  Q 1301.55 1706.46 1301.55 1724.50
  Q 1301.55 1742.54 1301.55 1743.05
  A 0.32 0.32 0.0 0 0 1301.87 1743.37
  Q 1303.72 1743.42 1338.97 1743.41
  Q 1339.05 1743.41 1339.18 1743.53
  Q 1339.31 1743.66 1339.31 1743.75
  Q 1339.28 1779.00 1339.33 1780.85
  A 0.32 0.32 0.0 0 0 1339.66 1781.17
  Q 1340.17 1781.17 1358.20 1781.17
  Q 1376.24 1781.17 1376.75 1781.18
  A 0.32 0.32 0.0 0 0 1377.08 1780.86
  Q 1377.13 1779.01 1377.11 1743.75
  Q 1377.11 1743.67 1377.24 1743.54
  Q 1377.37 1743.41 1377.45 1743.41
  Q 1412.70 1743.44 1414.55 1743.39
  A 0.32 0.32 0.0 0 0 1414.87 1743.06
  Q 1414.87 1742.56 1414.87 1724.52
  Q 1414.87 1706.48 1414.88 1705.97
  A 0.32 0.32 0.0 0 0 1414.56 1705.64
  Q 1412.71 1705.59 1377.46 1705.61
  Q 1377.37 1705.61 1377.24 1705.48
  Q 1377.12 1705.36 1377.12 1705.27
  Q 1377.14 1670.02 1377.09 1668.17
  A 0.32 0.32 0.0 0 0 1376.77 1667.85
  Q 1376.26 1667.85 1358.22 1667.85
  Q 1340.18 1667.85 1339.67 1667.84
  A 0.32 0.32 0.0 0 0 1339.35 1668.16
  Q 1339.30 1670.01 1339.31 1705.26
  Q 1339.31 1705.35 1339.19 1705.48"
/>
<path stroke="#80786f" d="
  M 433.20 1743.80
  A 0.32 0.32 0.0 0 0 432.88 1743.48
  L 206.88 1743.48
  A 0.32 0.32 0.0 0 0 206.56 1743.80
  L 206.56 1780.86
  A 0.32 0.32 0.0 0 0 206.88 1781.18
  L 432.88 1781.18
  A 0.32 0.32 0.0 0 0 433.20 1780.86
  L 433.20 1743.80"
/>
</g>
<path fill="#161412" d="
  M 54.94 1630.17
  L 18.36 1630.17
  A 0.56 0.56 0.0 0 1 17.80 1629.61
  L 17.80 44.20
  A 0.30 0.30 0.0 0 1 18.10 43.90
  L 130.57 43.90
  A 0.58 0.58 0.0 0 0 131.15 43.32
  L 131.15 6.69
  A 0.51 0.50 -90.0 0 1 131.65 6.18
  L 583.82 6.18
  A 0.39 0.39 0.0 0 1 584.21 6.57
  L 584.21 43.46
  A 0.44 0.44 0.0 0 0 584.65 43.90
  L 1036.81 43.90
  A 0.48 0.48 0.0 0 0 1037.29 43.42
  L 1037.29 6.53
  A 0.35 0.34 -90.0 0 1 1037.63 6.18
  L 1452.32 6.18
  A 0.33 0.33 0.0 0 1 1452.65 6.51
  L 1452.65 43.48
  A 0.42 0.41 90.0 0 0 1453.06 43.90
  L 1603.24 43.90
  A 0.43 0.43 0.0 0 1 1603.67 44.33
  L 1603.67 1629.59
  A 0.58 0.58 0.0 0 1 1603.09 1630.17
  L 1566.52 1630.17
  A 0.55 0.55 0.0 0 0 1565.97 1630.72
  L 1565.97 1667.31
  A 0.53 0.53 0.0 0 1 1565.44 1667.84
  L 1528.62 1667.84
  A 0.53 0.53 0.0 0 0 1528.09 1668.37
  L 1528.09 1931.93
  A 0.34 0.33 -0.0 0 1 1527.75 1932.26
  L 93.79 1932.26
  A 0.36 0.36 0.0 0 1 93.43 1931.90
  L 93.43 1668.09
  A 0.25 0.24 90.0 0 0 93.19 1667.84
  L 56.08 1667.84
  A 0.57 0.57 0.0 0 1 55.51 1667.27
  L 55.51 1630.73
  A 0.57 0.56 -0.0 0 0 54.94 1630.17
  Z
  M 1414.91 45.03
  Q 1415.27 44.09 1414.93 44.09
  Q 1263.49 43.82 1112.86 43.92
  L 1075.35 43.92
  A 0.39 0.39 0.0 0 0 1074.96 44.31
  L 1074.96 81.34
  A 0.26 0.26 0.0 0 1 1074.70 81.60
  L 546.79 81.60
  A 0.25 0.24 -0.0 0 1 546.54 81.36
  L 546.54 44.30
  A 0.38 0.38 0.0 0 0 546.16 43.92
  L 508.64 43.90
  L 206.56 43.90
  L 169.41 43.95
  A 0.58 0.58 0.0 0 0 168.83 44.53
  L 168.84 81.17
  A 0.43 0.43 0.0 0 1 168.41 81.60
  L 55.79 81.60
  A 0.28 0.27 -0.0 0 0 55.51 81.87
  L 55.51 1591.77
  A 0.66 0.66 0.0 0 0 56.17 1592.43
  L 92.88 1592.43
  A 0.55 0.55 0.0 0 1 93.43 1592.98
  L 93.43 1629.77
  A 0.39 0.39 0.0 0 0 93.82 1630.16
  L 130.63 1630.16
  A 0.51 0.51 0.0 0 1 131.14 1630.67
  L 131.14 1894.13
  A 0.42 0.42 0.0 0 0 131.56 1894.55
  L 1489.99 1894.55
  A 0.36 0.36 0.0 0 0 1490.35 1894.19
  L 1490.35 1630.65
  A 0.51 0.51 0.0 0 1 1490.86 1630.14
  L 1527.55 1630.14
  A 0.49 0.49 0.0 0 0 1528.04 1629.65
  L 1528.04 1592.72
  A 0.29 0.29 0.0 0 1 1528.33 1592.43
  L 1565.63 1592.43
  A 0.35 0.34 -90.0 0 0 1565.97 1592.08
  L 1565.97 81.84
  A 0.24 0.24 0.0 0 0 1565.73 81.60
  L 1415.86 81.60
  A 0.77 0.76 89.6 0 1 1415.10 80.84
  L 1414.91 45.03
  Z"
/>
<path fill="#c6ac89" d="
  M 206.56 43.90
  L 206.51 119.12
  A 0.45 0.45 0.0 0 1 206.06 119.56
  L 94.10 119.56
  A 0.67 0.67 0.0 0 0 93.43 120.23
  L 93.43 1553.77
  A 0.70 0.70 0.0 0 0 94.13 1554.47
  L 1527.39 1554.47
  A 0.65 0.65 0.0 0 0 1528.04 1553.82
  L 1528.04 120.11
  A 0.54 0.54 0.0 0 0 1527.50 119.57
  L 1415.44 119.57
  A 0.47 0.46 -90.0 0 1 1414.98 119.10
  L 1414.91 45.03
  L 1415.10 80.84
  A 0.77 0.76 89.6 0 0 1415.86 81.60
  L 1565.73 81.60
  A 0.24 0.24 0.0 0 1 1565.97 81.84
  L 1565.97 1592.08
  A 0.35 0.34 -90.0 0 1 1565.63 1592.43
  L 1528.33 1592.43
  A 0.29 0.29 0.0 0 0 1528.04 1592.72
  L 1528.04 1629.65
  A 0.49 0.49 0.0 0 1 1527.55 1630.14
  L 1490.86 1630.14
  A 0.51 0.51 0.0 0 0 1490.35 1630.65
  L 1490.35 1894.19
  A 0.36 0.36 0.0 0 1 1489.99 1894.55
  L 131.56 1894.55
  A 0.42 0.42 0.0 0 1 131.14 1894.13
  L 131.14 1630.67
  A 0.51 0.51 0.0 0 0 130.63 1630.16
  L 93.82 1630.16
  A 0.39 0.39 0.0 0 1 93.43 1629.77
  L 93.43 1592.98
  A 0.55 0.55 0.0 0 0 92.88 1592.43
  L 56.17 1592.43
  A 0.66 0.66 0.0 0 1 55.51 1591.77
  L 55.51 81.87
  A 0.28 0.27 -0.0 0 1 55.79 81.60
  L 168.41 81.60
  A 0.43 0.43 0.0 0 0 168.84 81.17
  L 168.83 44.53
  A 0.58 0.58 0.0 0 1 169.41 43.95
  L 206.56 43.90
  Z
  M 1452.67 1592.83
  A 0.41 0.41 0.0 0 0 1452.26 1592.42
  L 169.26 1592.42
  A 0.41 0.41 0.0 0 0 168.85 1592.83
  L 168.85 1856.19
  A 0.41 0.41 0.0 0 0 169.26 1856.60
  L 1452.26 1856.60
  A 0.41 0.41 0.0 0 0 1452.67 1856.19
  L 1452.67 1592.83
  Z"
/>
<path fill="#c6ac89" d="
  M 1112.86 43.92
  L 1112.92 119.03
  A 0.53 0.53 0.0 0 1 1112.39 119.56
  L 509.16 119.56
  A 0.59 0.59 0.0 0 1 508.57 118.97
  L 508.64 43.90
  L 546.16 43.92
  A 0.38 0.38 0.0 0 1 546.54 44.30
  L 546.54 81.36
  A 0.25 0.24 -0.0 0 0 546.79 81.60
  L 1074.70 81.60
  A 0.26 0.26 0.0 0 0 1074.96 81.34
  L 1074.96 44.31
  A 0.39 0.39 0.0 0 1 1075.35 43.92
  L 1112.86 43.92
  Z"
/>
<path fill="#e9dccb" d="
  M 508.64 43.90
  L 508.57 118.97
  A 0.59 0.59 0.0 0 0 509.16 119.56
  L 1112.39 119.56
  A 0.53 0.53 0.0 0 0 1112.92 119.03
  L 1112.86 43.92
  Q 1263.49 43.82 1414.93 44.09
  Q 1415.27 44.09 1414.91 45.03
  L 1414.98 119.10
  A 0.47 0.46 90.0 0 0 1415.44 119.57
  L 1527.50 119.57
  A 0.54 0.54 0.0 0 1 1528.04 120.11
  L 1528.04 1553.82
  A 0.65 0.65 0.0 0 1 1527.39 1554.47
  L 94.13 1554.47
  A 0.70 0.70 0.0 0 1 93.43 1553.77
  L 93.43 120.23
  A 0.67 0.67 0.0 0 1 94.10 119.56
  L 206.06 119.56
  A 0.45 0.45 0.0 0 0 206.51 119.12
  L 206.56 43.90
  L 508.64 43.90
  Z
  M 810.74 232.65
  Q 246.62 232.64 244.84 232.67
  A 0.38 0.37 89.4 0 0 244.47 233.05
  L 244.47 307.87
  A 0.46 0.45 0.0 0 1 244.01 308.32
  L 169.31 308.32
  A 0.44 0.43 -0.0 0 0 168.87 308.75
  Q 168.83 313.60 168.82 723.66
  Q 168.82 1133.71 168.86 1138.56
  A 0.44 0.43 0.0 0 0 169.30 1138.99
  L 244.00 1138.99
  A 0.46 0.45 0.0 0 1 244.46 1139.44
  L 244.46 1214.26
  A 0.38 0.37 -89.4 0 0 244.82 1214.64
  Q 246.61 1214.67 810.73 1214.68
  Q 1374.85 1214.69 1376.64 1214.66
  A 0.38 0.37 89.4 0 0 1377.00 1214.28
  L 1377.00 1139.46
  A 0.46 0.45 -0.0 0 1 1377.46 1139.01
  L 1452.16 1139.01
  A 0.44 0.43 -0.0 0 0 1452.60 1138.57
  Q 1452.64 1133.73 1452.65 723.67
  Q 1452.66 313.62 1452.62 308.77
  A 0.44 0.43 0.0 0 0 1452.18 308.34
  L 1377.48 308.34
  A 0.46 0.45 0.0 0 1 1377.02 307.89
  L 1377.02 233.07
  A 0.38 0.37 -89.4 0 0 1376.65 232.69
  Q 1374.86 232.66 810.74 232.65
  Z
  M 810.88 1422.39
  Q 810.88 1438.38 810.81 1440.91
  A 0.45 0.44 0.9 0 0 811.27 1441.37
  L 1225.33 1441.37
  A 0.61 0.60 -90.0 0 1 1225.93 1441.98
  L 1225.93 1478.55
  A 0.53 0.53 0.0 0 0 1226.46 1479.08
  L 1376.51 1479.08
  A 0.45 0.44 -89.8 0 0 1376.95 1478.64
  Q 1377.01 1450.98 1377.01 1422.39
  Q 1377.01 1393.81 1376.95 1366.15
  A 0.45 0.44 89.8 0 0 1376.51 1365.71
  L 1226.46 1365.71
  A 0.53 0.53 0.0 0 0 1225.93 1366.24
  L 1225.93 1402.81
  A 0.61 0.60 90.0 0 1 1225.33 1403.42
  L 811.27 1403.42
  A 0.45 0.44 -0.9 0 0 810.81 1403.88
  Q 810.88 1406.41 810.88 1422.39
  Z"
/>
<path fill="#c6ac89" d="
  M 1452.65 723.67
  Q 1452.64 1133.73 1452.60 1138.57
  A 0.44 0.43 -0.0 0 1 1452.16 1139.01
  L 1377.46 1139.01
  A 0.46 0.45 0.0 0 0 1377.00 1139.46
  L 1377.00 1214.28
  A 0.38 0.37 89.4 0 1 1376.64 1214.66
  Q 1374.85 1214.69 810.73 1214.68
  Q 246.61 1214.67 244.82 1214.64
  A 0.38 0.37 -89.4 0 1 244.46 1214.26
  L 244.46 1139.44
  A 0.46 0.45 0.0 0 0 244.00 1138.99
  L 169.30 1138.99
  A 0.44 0.43 0.0 0 1 168.86 1138.56
  Q 168.82 1133.71 168.82 723.66
  Q 168.83 313.60 168.87 308.75
  A 0.44 0.43 -0.0 0 1 169.31 308.32
  L 244.01 308.32
  A 0.46 0.45 -0.0 0 0 244.47 307.87
  L 244.47 233.05
  A 0.38 0.37 89.4 0 1 244.84 232.67
  Q 246.62 232.64 810.74 232.65
  Q 1374.86 232.66 1376.65 232.69
  A 0.38 0.37 -89.4 0 1 1377.02 233.07
  L 1377.02 307.89
  A 0.46 0.45 0.0 0 0 1377.48 308.34
  L 1452.18 308.34
  A 0.44 0.43 0.0 0 1 1452.62 308.77
  Q 1452.66 313.62 1452.65 723.67
  Z
  M 282.21 308.33
  L 282.07 345.38
  A 0.50 0.50 0.0 0 1 281.57 345.88
  L 244.46 346.04
  L 207.05 346.13
  A 0.51 0.51 0.0 0 0 206.54 346.64
  L 206.54 1100.71
  A 0.51 0.51 0.0 0 0 207.05 1101.22
  L 244.46 1101.25
  L 281.62 1101.42
  A 0.50 0.50 0.0 0 1 282.12 1101.92
  L 282.19 1138.93
  L 282.17 1176.45
  A 0.50 0.50 0.0 0 0 282.67 1176.95
  L 1338.75 1176.95
  A 0.51 0.51 0.0 0 0 1339.26 1176.44
  L 1339.28 1138.93
  L 1339.42 1101.87
  A 0.51 0.51 0.0 0 1 1339.92 1101.36
  L 1377.02 1101.23
  L 1414.43 1101.22
  A 0.52 0.51 -0.0 0 0 1414.95 1100.71
  L 1414.95 346.61
  A 0.51 0.51 0.0 0 0 1414.44 346.10
  L 1377.02 346.04
  L 1339.96 345.90
  A 0.51 0.51 0.0 0 1 1339.45 345.40
  L 1339.27 308.32
  L 1339.26 270.90
  A 0.29 0.29 0.0 0 0 1338.97 270.61
  L 282.76 270.61
  A 0.50 0.50 0.0 0 0 282.26 271.11
  L 282.21 308.33
  Z"
/>
<path fill="#161412" d="
  M 1339.27 308.32
  L 282.21 308.33
  L 282.26 271.11
  A 0.50 0.50 0.0 0 1 282.76 270.61
  L 1338.97 270.61
  A 0.29 0.29 0.0 0 1 1339.26 270.90
  L 1339.27 308.32
  Z"
/>
<path fill="#161412" d="
  M 244.46 346.04
  L 244.46 1101.25
  L 207.05 1101.22
  A 0.51 0.51 0.0 0 1 206.54 1100.71
  L 206.54 346.64
  A 0.51 0.51 0.0 0 1 207.05 346.13
  L 244.46 346.04
  Z"
/>
<path fill="#161412" d="
  M 1377.02 1101.23
  L 1377.02 346.04
  L 1414.44 346.10
  A 0.51 0.51 0.0 0 1 1414.95 346.61
  L 1414.95 1100.71
  A 0.52 0.51 0.0 0 1 1414.43 1101.22
  L 1377.02 1101.23
  Z"
/>
<path fill="#1f1c14" d="
  M 1090.84 1033.17
  L 508.62 1033.17
  A 0.30 0.30 0.0 0 1 508.32 1032.87
  L 508.32 968.89
  A 0.57 0.56 -0.0 0 0 507.75 968.33
  L 411.57 968.33
  A 0.60 0.59 -90.0 0 1 410.98 967.73
  L 410.98 482.65
  A 0.58 0.57 -0.0 0 1 411.56 482.08
  L 475.16 482.08
  A 0.63 0.62 -90.0 0 0 475.78 481.45
  L 475.78 417.89
  A 0.59 0.59 0.0 0 1 476.37 417.30
  L 1123.41 417.30
  A 0.62 0.61 -0.0 0 1 1124.03 417.91
  L 1124.03 481.56
  A 0.51 0.51 0.0 0 0 1124.54 482.07
  L 1188.27 482.07
  A 0.56 0.55 -90.0 0 1 1188.82 482.63
  L 1188.82 611.35
  A 0.36 0.35 0.0 0 0 1189.18 611.70
  L 1253.19 611.70
  A 0.42 0.42 0.0 0 1 1253.61 612.12
  L 1253.61 675.99
  A 0.56 0.56 0.0 0 1 1253.05 676.55
  L 1189.40 676.55
  A 0.58 0.58 0.0 0 0 1188.82 677.13
  L 1188.82 967.90
  A 0.42 0.42 0.0 0 1 1188.40 968.32
  L 1091.97 968.32
  A 0.49 0.49 0.0 0 0 1091.48 968.81
  L 1091.48 1032.53
  A 0.64 0.64 0.0 0 1 1090.84 1033.17
  Z
  M 540.59 514.63
  L 540.59 546.41
  A 0.53 0.52 -0.6 0 1 540.07 546.93
  L 508.36 546.93
  L 476.08 546.95
  A 0.37 0.36 0.0 0 0 475.71 547.31
  L 475.71 902.75
  A 0.76 0.76 0.0 0 0 476.48 903.51
  L 508.23 903.19
  L 572.60 903.54
  A 0.53 0.53 0.0 0 1 573.13 904.07
  L 573.13 967.84
  A 0.49 0.48 90.0 0 0 573.61 968.33
  L 670.18 968.15
  L 800.06 968.11
  L 1026.26 968.33
  A 0.47 0.47 0.0 0 0 1026.73 967.86
  L 1026.71 903.52
  L 1123.38 903.54
  A 0.66 0.66 0.0 0 0 1124.04 902.88
  L 1124.02 676.54
  Q 1124.00 676.51 1123.97 676.47
  A 0.36 0.32 -63.7 0 1 1123.92 676.29
  L 1123.99 611.71
  L 1123.97 547.59
  A 0.69 0.69 0.0 0 0 1123.28 546.90
  L 1059.77 546.90
  A 0.54 0.54 0.0 0 1 1059.23 546.36
  L 1059.23 482.71
  A 0.62 0.61 0.0 0 0 1058.61 482.10
  L 541.23 482.10
  A 0.64 0.64 0.0 0 0 540.59 482.74
  L 540.59 514.63
  Z"
/>
<path fill="#3e2f16" d="
  M 1123.99 611.71
  L 1027.04 611.72
  A 0.22 0.20 20.8 0 0 1026.89 611.78
  Q 1026.78 611.86 1026.68 611.94
  Q 1026.55 611.81 1026.48 611.63
  L 1026.70 515.21
  A 0.59 0.58 -0.0 0 0 1026.11 514.63
  L 929.63 514.63
  L 670.28 514.63
  L 540.59 514.63
  L 540.59 482.74
  A 0.64 0.64 0.0 0 1 541.23 482.10
  L 1058.61 482.10
  A 0.62 0.61 -0.0 0 1 1059.23 482.71
  L 1059.23 546.36
  A 0.54 0.54 0.0 0 0 1059.77 546.90
  L 1123.28 546.90
  A 0.69 0.69 0.0 0 1 1123.97 547.59
  L 1123.99 611.71
  Z"
/>
<path fill="#6c512f" d="
  M 670.28 514.63
  L 670.26 611.72
  L 605.80 611.72
  A 0.43 0.43 0.0 0 0 605.37 612.15
  L 605.37 676.18
  A 0.36 0.36 0.0 0 0 605.73 676.54
  L 702.30 676.54
  A 0.31 0.29 -65.8 0 0 702.51 676.45
  Q 702.64 676.32 702.71 676.25
  L 800.02 676.53
  L 928.68 676.59
  A 0.40 0.35 30.1 0 0 928.83 676.56
  Q 929.51 676.24 929.64 675.46
  L 929.68 676.10
  A 0.47 0.47 0.0 0 0 930.15 676.54
  L 1026.69 676.52
  Q 1026.70 676.54 1026.71 676.55
  L 1026.69 773.46
  A 0.43 0.43 0.0 0 1 1026.26 773.89
  L 897.59 773.89
  A 0.47 0.47 0.0 0 0 897.12 774.36
  L 897.12 870.30
  A 0.67 0.67 0.0 0 0 897.79 870.97
  L 1025.97 870.97
  A 0.75 0.74 -0.0 0 1 1026.72 871.71
  L 1026.71 903.52
  L 1026.73 967.86
  A 0.47 0.47 0.0 0 1 1026.26 968.33
  L 800.06 968.11
  L 800.04 903.91
  A 0.38 0.38 0.0 0 0 799.66 903.53
  L 670.60 903.53
  A 0.42 0.42 0.0 0 0 670.18 903.95
  L 670.18 968.15
  L 573.61 968.33
  A 0.49 0.48 90.0 0 1 573.13 967.84
  L 573.13 904.07
  A 0.53 0.53 0.0 0 0 572.60 903.54
  L 508.23 903.19
  L 508.33 871.44
  A 0.49 0.48 -89.4 0 1 508.81 870.96
  L 572.60 870.96
  A 0.53 0.53 0.0 0 0 573.13 870.43
  L 573.13 774.64
  A 0.75 0.74 -90.0 0 0 572.39 773.89
  L 508.56 773.89
  A 0.13 0.13 0.0 0 1 508.43 773.76
  L 508.36 546.93
  L 540.07 546.93
  A 0.53 0.52 -0.6 0 0 540.59 546.41
  L 540.59 514.63
  L 670.28 514.63
  Z"
/>
<path fill="#98764a" d="
  M 929.63 514.63
  L 929.63 611.72
  L 929.64 675.46
  Q 929.51 676.24 928.83 676.56
  A 0.40 0.35 30.1 0 1 928.68 676.59
  L 800.02 676.53
  L 800.01 612.19
  A 0.49 0.49 0.0 0 0 799.52 611.70
  L 702.70 612.00
  L 670.26 611.72
  L 670.28 514.63
  L 929.63 514.63
  Z"
/>
<path fill="#6c512f" d="
  M 1026.48 611.63
  L 929.63 611.72
  L 929.63 514.63
  L 1026.11 514.63
  A 0.59 0.58 -0.0 0 1 1026.70 515.21
  L 1026.48 611.63
  Z"
/>
<path fill="#3e2f16" d="
  M 508.36 546.93
  L 508.43 773.76
  A 0.13 0.13 0.0 0 0 508.56 773.89
  L 572.39 773.89
  A 0.75 0.74 -90.0 0 1 573.13 774.64
  L 573.13 870.43
  A 0.53 0.53 0.0 0 1 572.60 870.96
  L 508.81 870.96
  A 0.49 0.48 -89.4 0 0 508.33 871.44
  L 508.23 903.19
  L 476.48 903.51
  A 0.76 0.76 0.0 0 1 475.71 902.75
  L 475.71 547.31
  A 0.37 0.36 0.0 0 1 476.08 546.95
  L 508.36 546.93
  Z"
/>
<path fill="#1f1c14" d="
  M 1026.48 611.63
  Q 1026.55 611.81 1026.68 611.94
  L 1026.69 676.52
  L 930.15 676.54
  A 0.47 0.47 0.0 0 1 929.68 676.10
  L 929.64 675.46
  L 929.63 611.72
  L 1026.48 611.63
  Z"
/>
<path fill="#1f1c14" d="
  M 670.26 611.72
  L 702.70 612.00
  L 702.71 676.25
  Q 702.64 676.32 702.51 676.45
  A 0.31 0.29 -65.8 0 1 702.30 676.54
  L 605.73 676.54
  A 0.36 0.36 0.0 0 1 605.37 676.18
  L 605.37 612.15
  A 0.43 0.43 0.0 0 1 605.80 611.72
  L 670.26 611.72
  Z"
/>
<path fill="#4a8f59" d="
  M 800.02 676.53
  L 702.71 676.25
  L 702.70 612.00
  L 799.52 611.70
  A 0.49 0.49 0.0 0 1 800.01 612.19
  L 800.02 676.53
  Z"
/>
<path fill="#4a8f59" d="
  M 1123.99 611.71
  L 1123.92 676.29
  A 0.36 0.32 -63.7 0 0 1123.97 676.47
  Q 1124.00 676.51 1124.02 676.54
  L 1026.71 676.55
  Q 1026.70 676.54 1026.69 676.52
  L 1026.68 611.94
  Q 1026.78 611.86 1026.89 611.78
  A 0.22 0.20 20.8 0 1 1027.04 611.72
  L 1123.99 611.71
  Z"
/>
<path fill="#3e2f16" d="
  M 1124.02 676.54
  L 1124.04 902.88
  A 0.66 0.66 0.0 0 1 1123.38 903.54
  L 1026.71 903.52
  L 1026.72 871.71
  A 0.75 0.74 -0.0 0 0 1025.97 870.97
  L 897.79 870.97
  A 0.67 0.67 0.0 0 1 897.12 870.30
  L 897.12 774.36
  A 0.47 0.47 0.0 0 1 897.59 773.89
  L 1026.26 773.89
  A 0.43 0.43 0.0 0 0 1026.69 773.46
  L 1026.71 676.55
  L 1124.02 676.54
  Z"
/>
<path fill="#3e2f16" d="
  M 800.06 968.11
  L 670.18 968.15
  L 670.18 903.95
  A 0.42 0.42 0.0 0 1 670.60 903.53
  L 799.66 903.53
  A 0.38 0.38 0.0 0 1 800.04 903.91
  L 800.06 968.11
  Z"
/>
<path fill="#161412" d="
  M 1339.28 1138.93
  L 1339.26 1176.44
  A 0.51 0.51 0.0 0 1 1338.75 1176.95
  L 282.67 1176.95
  A 0.50 0.50 0.0 0 1 282.17 1176.45
  L 282.19 1138.93
  L 1339.28 1138.93
  Z"
/>
<path fill="#161412" d="
  M 1377.01 1422.39
  Q 1377.01 1450.98 1376.95 1478.64
  A 0.45 0.44 -89.8 0 1 1376.51 1479.08
  L 1226.46 1479.08
  A 0.53 0.53 0.0 0 1 1225.93 1478.55
  L 1225.93 1441.98
  A 0.61 0.60 90.0 0 0 1225.33 1441.37
  L 811.27 1441.37
  A 0.45 0.44 0.9 0 1 810.81 1440.91
  Q 810.88 1438.38 810.88 1422.39
  Q 810.88 1406.41 810.81 1403.88
  A 0.45 0.44 -0.9 0 1 811.27 1403.42
  L 1225.33 1403.42
  A 0.61 0.60 90.0 0 0 1225.93 1402.81
  L 1225.93 1366.24
  A 0.53 0.53 0.0 0 1 1226.46 1365.71
  L 1376.51 1365.71
  A 0.45 0.44 89.8 0 1 1376.95 1366.15
  Q 1377.01 1393.81 1377.01 1422.39
  Z"
/>
<path fill="#e9dccb" d="
  M 1452.67 1856.19
  A 0.41 0.41 0.0 0 1 1452.26 1856.60
  L 169.26 1856.60
  A 0.41 0.41 0.0 0 1 168.85 1856.19
  L 168.85 1592.83
  A 0.41 0.41 0.0 0 1 169.26 1592.42
  L 1452.26 1592.42
  A 0.41 0.41 0.0 0 1 1452.67 1592.83
  L 1452.67 1856.19
  Z
  M 433.18 1668.19
  A 0.34 0.34 0.0 0 0 432.84 1667.85
  L 206.88 1667.85
  A 0.34 0.34 0.0 0 0 206.54 1668.19
  L 206.54 1705.19
  A 0.34 0.34 0.0 0 0 206.88 1705.53
  L 432.84 1705.53
  A 0.34 0.34 0.0 0 0 433.18 1705.19
  L 433.18 1668.19
  Z
  M 1339.19 1705.48
  Q 1339.06 1705.61 1338.97 1705.61
  Q 1303.72 1705.58 1301.87 1705.63
  A 0.32 0.32 0.0 0 0 1301.55 1705.95
  Q 1301.55 1706.46 1301.55 1724.50
  Q 1301.55 1742.54 1301.55 1743.05
  A 0.32 0.32 0.0 0 0 1301.87 1743.37
  Q 1303.72 1743.42 1338.97 1743.41
  Q 1339.05 1743.41 1339.18 1743.53
  Q 1339.31 1743.66 1339.31 1743.75
  Q 1339.28 1779.00 1339.33 1780.85
  A 0.32 0.32 0.0 0 0 1339.66 1781.17
  Q 1340.17 1781.17 1358.20 1781.17
  Q 1376.24 1781.17 1376.75 1781.18
  A 0.32 0.32 0.0 0 0 1377.08 1780.86
  Q 1377.13 1779.01 1377.11 1743.75
  Q 1377.11 1743.67 1377.24 1743.54
  Q 1377.37 1743.41 1377.45 1743.41
  Q 1412.70 1743.44 1414.55 1743.39
  A 0.32 0.32 0.0 0 0 1414.87 1743.06
  Q 1414.87 1742.56 1414.87 1724.52
  Q 1414.87 1706.48 1414.88 1705.97
  A 0.32 0.32 0.0 0 0 1414.56 1705.64
  Q 1412.71 1705.59 1377.46 1705.61
  Q 1377.37 1705.61 1377.24 1705.48
  Q 1377.12 1705.36 1377.12 1705.27
  Q 1377.14 1670.02 1377.09 1668.17
  A 0.32 0.32 0.0 0 0 1376.77 1667.85
  Q 1376.26 1667.85 1358.22 1667.85
  Q 1340.18 1667.85 1339.67 1667.84
  A 0.32 0.32 0.0 0 0 1339.35 1668.16
  Q 1339.30 1670.01 1339.31 1705.26
  Q 1339.31 1705.35 1339.19 1705.48
  Z
  M 433.20 1743.80
  A 0.32 0.32 0.0 0 0 432.88 1743.48
  L 206.88 1743.48
  A 0.32 0.32 0.0 0 0 206.56 1743.80
  L 206.56 1780.86
  A 0.32 0.32 0.0 0 0 206.88 1781.18
  L 432.88 1781.18
  A 0.32 0.32 0.0 0 0 433.20 1780.86
  L 433.20 1743.80
  Z"
/>
<rect fill="#161412" x="206.54" y="1667.85" width="226.64" height="37.68" rx="0.34"/>
<path fill="#161412" d="
  M 1358.22 1667.85
  Q 1376.26 1667.85 1376.77 1667.85
  A 0.32 0.32 0.0 0 1 1377.09 1668.17
  Q 1377.14 1670.02 1377.12 1705.27
  Q 1377.12 1705.36 1377.24 1705.48
  Q 1377.37 1705.61 1377.46 1705.61
  Q 1412.71 1705.59 1414.56 1705.64
  A 0.32 0.32 0.0 0 1 1414.88 1705.97
  Q 1414.87 1706.48 1414.87 1724.52
  Q 1414.87 1742.56 1414.87 1743.06
  A 0.32 0.32 0.0 0 1 1414.55 1743.39
  Q 1412.70 1743.44 1377.45 1743.41
  Q 1377.37 1743.41 1377.24 1743.54
  Q 1377.11 1743.67 1377.11 1743.75
  Q 1377.13 1779.01 1377.08 1780.86
  A 0.32 0.32 0.0 0 1 1376.75 1781.18
  Q 1376.24 1781.17 1358.20 1781.17
  Q 1340.17 1781.17 1339.66 1781.17
  A 0.32 0.32 0.0 0 1 1339.33 1780.85
  Q 1339.28 1779.00 1339.31 1743.75
  Q 1339.31 1743.66 1339.18 1743.53
  Q 1339.05 1743.41 1338.97 1743.41
  Q 1303.72 1743.42 1301.87 1743.37
  A 0.32 0.32 0.0 0 1 1301.55 1743.05
  Q 1301.55 1742.54 1301.55 1724.50
  Q 1301.55 1706.46 1301.55 1705.95
  A 0.32 0.32 0.0 0 1 1301.87 1705.63
  Q 1303.72 1705.58 1338.97 1705.61
  Q 1339.06 1705.61 1339.19 1705.48
  Q 1339.31 1705.35 1339.31 1705.26
  Q 1339.30 1670.01 1339.35 1668.16
  A 0.32 0.32 0.0 0 1 1339.67 1667.84
  Q 1340.18 1667.85 1358.22 1667.85
  Z"
/>
<rect fill="#161412" x="206.56" y="1743.48" width="226.64" height="37.70" rx="0.32"/>
</svg>
